Patient4_TMGait_0pt7_02_right_16_GRF.mot
version=1
nRows=65
nColumns=19
inDegrees=no
endheader
time	F1x	F1y	F1z	M1x	M1y	M1z	F2x	F2y	F2z	M2x	M2y	M2z	EC1x	EC1y	EC1z	EC2x	EC2y	EC2z
17.47	3.9034	710.8783	74.0169	-245.5018	-68.8454	751.5016	-5.9743	1.5406	-17.8297	5.8875	7.8199	2.2743	-0.0592	0.0182	-0.0073	-0.0462	0.0165	0.9585
17.4817	1.0452	709.3325	72.0341	-243.8314	-68.4376	742.5313	-4.0571	2.007	-12.2494	4.371	5.4809	2.7119	-0.0592	0.0182	-0.0073	-0.0462	0.0165	0.9585
17.4934	-0.55548	707.4839	70.0667	-242.0213	-67.4485	733.292	-2.4629	2.3812	-7.4452	3.0681	3.4618	3.065	-0.0592	0.0182	-0.0073	-0.0462	0.0165	0.9585
17.5051	-0.80053	705.9596	68.284	-240.3766	-65.9635	724.7004	-1.2633	2.6454	-3.7415	2.0666	1.9061	3.2985	-0.0592	0.0182	-0.0073	-0.0462	0.0165	0.9585
17.5169	0.1306	705.3671	66.8344	-239.1622	-64.1904	717.4354	-0.45757	2.8431	-1.1584	1.3798	0.8307	3.4596	-0.0592	0.0182	-0.0073	-0.0462	0.0165	0.9585
17.5286	1.9861	706.0558	65.7369	-238.5331	-62.2726	711.8185	0.022724	2.9615	0.44556	0.95869	0.18087	3.5297	-0.0592	0.0182	-0.0073	-0.0462	0.0165	0.9585
17.5403	4.5336	708.1478	65.0185	-238.5401	-60.3618	707.8766	0.22167	3.005	1.2796	0.73399	-0.11758	3.5278	-0.0592	0.0182	-0.0073	-0.0462	0.0165	0.9585
17.552	7.5605	711.5266	64.616	-239.1399	-58.5119	705.3755	0.24238	2.9545	1.5686	0.6265	-0.16585	3.4265	-0.0592	0.0182	-0.0073	-0.0462	0.0165	0.9585
17.5637	10.9606	715.9316	64.4868	-240.2282	-56.7577	703.9585	0.12914	2.7781	1.5057	0.5592	-0.038821	3.1942	-0.0592	0.0182	-0.0073	-0.0462	0.0165	0.9585
17.5754	14.6595	721.0394	64.5657	-241.6741	-55.0888	703.2181	-0.050464	2.4019	1.246	0.45551	0.19332	2.7297	-0.0592	0.0182	-0.0073	-0.0462	0.0165	0.9585
17.5871	18.6142	726.4885	64.7926	-243.3318	-53.4738	702.7255	-0.26477	1.7638	0.89335	0.25378	0.48615	1.964	-0.0592	0.0182	-0.0073	-0.0462	0.0165	0.9585
17.5989	22.8135	732.053	65.1321	-245.0955	-51.8881	702.2221	-0.46388	0.76004	0.52146	-0.10608	0.79015	0.76198	-0.0592	0.0182	-0.0073	-0.0462	0.0165	0.9585
17.6106	27.2492	737.5766	65.5553	-246.8894	-50.304	701.5332	-0.62797	-0.66318	0.18316	-0.6592	1.0602	-0.94198	-0.0592	0.0182	-0.0073	-0.0462	0.0165	0.9585
17.6223	31.8991	743.0591	66.0792	-248.6893	-48.7334	700.6662	-0.68968	-2.5343	-0.078067	-1.4149	1.2318	-3.1871	-0.0592	0.0182	-0.0073	-0.0462	0.0165	0.9585
17.634	36.7511	748.6196	66.6866	-250.5158	-47.151	699.7649	-0.61505	-4.7597	-0.20855	-2.3266	1.2249	-5.8455	-0.0592	0.0182	-0.0073	-0.0462	0.0165	0.9585
17.6457	41.7188	754.4094	67.3974	-252.4029	-45.5914	699.0393	-0.29909	-7.0446	-0.1463	-3.2615	0.92255	-8.5676	-0.0592	0.0182	-0.0073	-0.0462	0.0165	0.9585
17.6574	46.6765	760.5646	68.1832	-254.3802	-44.0633	698.6897	0.32929	-8.8214	0.19462	-3.9733	0.18357	-10.6716	-0.0592	0.0182	-0.0073	-0.0462	0.0165	0.9585
17.6691	51.4498	766.987	69.0493	-256.3999	-42.6242	698.733	1.3705	-9.1737	0.93006	-4.0701	-1.1711	-11.0855	-0.0592	0.0182	-0.0073	-0.0462	0.0165	0.9585
17.6809	55.8628	773.3027	69.9602	-258.3259	-41.3028	698.9135	2.8814	-6.7392	2.1735	-2.9809	-3.3001	-8.1956	-0.0592	0.0182	-0.0073	-0.0462	0.0165	0.9585
17.6926	59.8093	778.7894	70.8891	-259.9119	-40.1217	698.6499	4.8622	0.22364	4.026	0.02938	-6.3146	0.068287	-0.0592	0.0182	-0.0073	-0.0462	0.0165	0.9585
17.7043	63.2849	782.4496	71.7556	-260.8339	-39.0291	697.0895	7.1962	13.8137	6.5141	5.834	-10.18	16.202	-0.0592	0.0182	-0.0073	-0.0462	0.0165	0.9585
17.716	66.3399	783.1313	72.4254	-260.7323	-37.9093	693.211	9.5819	36.1426	9.5296	15.3078	-14.6192	42.7111	-0.0592	0.0182	-0.0073	-0.0462	0.0165	0.9585
17.7277	69.0592	779.5403	72.6899	-259.2106	-36.5833	685.893	11.4357	68.8737	12.7476	29.1228	-18.9779	81.603	-0.0592	0.0182	-0.0073	-0.0462	0.0165	0.9585
17.7394	71.4687	770.232	72.2571	-255.8241	-34.8237	673.8856	11.7628	112.4821	15.5373	47.4349	-22.0834	133.4755	-0.0592	0.0182	-0.0073	-0.0462	0.0165	0.9585
17.7511	73.4673	753.6224	70.8078	-250.0779	-32.4274	655.8683	9.1186	165.2664	17.1225	69.473	-22.4053	196.3512	-0.0592	0.0182	-0.0073	-0.0462	0.0165	0.9585
17.7629	74.841	728.1252	68.0345	-241.4711	-29.2415	630.5537	2.6664	222.7121	16.4028	93.2781	-18.3258	264.8624	-0.0592	0.0182	-0.0073	-0.0462	0.0165	0.9585
17.7746	75.2492	692.4871	63.7471	-229.601	-25.2612	596.9584	-6.5417	278.3767	12.4027	116.1317	-9.2737	331.237	-0.0592	0.0182	-0.0073	-0.0462	0.0165	0.9585
17.7863	74.3093	646.1739	57.9563	-214.2881	-20.6519	554.7121	-16.4509	327.4239	5.5157	136.039	3.348	389.4417	-0.0592	0.0182	-0.0073	-0.0462	0.0165	0.9585
17.798	71.6953	589.7263	50.9069	-195.6843	-15.7304	504.3853	-25.6228	369.034	-3.1362	152.6811	17.5684	438.2508	-0.0592	0.0182	-0.0073	-0.0462	0.0165	0.9585
17.8097	67.2424	524.7046	43.0676	-174.2672	-10.9229	447.356	-33.3664	405.4305	-12.4159	167.0202	31.7787	480.1484	-0.0592	0.0182	-0.0073	-0.0462	0.0165	0.9585
17.8214	60.9501	453.5879	34.9585	-150.8172	-6.6227	385.7593	-39.4879	439.7996	-21.1895	180.4294	44.5922	518.9073	-0.0592	0.0182	-0.0073	-0.0462	0.0165	0.9585
17.8331	53.0164	379.5246	27.1067	-126.3494	-3.1573	322.2082	-43.9866	474.6628	-28.6468	194.0052	55.1022	557.5397	-0.0592	0.0182	-0.0073	-0.0462	0.0165	0.9585
17.8449	43.802	306.1048	19.9198	-102.0408	-0.69273	259.6586	-47.0552	511.2817	-34.426	208.2987	62.9857	597.5831	-0.0592	0.0182	-0.0073	-0.0462	0.0165	0.9585
17.8566	33.9819	236.9302	13.7374	-79.0883	0.75354	201.0108	-48.9274	549.7543	-38.6437	223.341	68.4945	639.1956	-0.0592	0.0182	-0.0073	-0.0462	0.0165	0.9585
17.8683	24.3912	175.1108	8.7337	-58.5357	1.3555	148.7681	-49.9158	589.3356	-41.8735	238.7778	72.4096	681.6254	-0.0592	0.0182	-0.0073	-0.0462	0.0165	0.9585
17.88	15.8842	122.6879	4.9949	-41.0754	1.3461	104.4972	-50.293	628.6441	-44.7553	253.9875	75.5798	723.3949	-0.0592	0.0182	-0.0073	-0.0462	0.0165	0.9585
17.8917	8.99	80.4293	2.4065	-26.977	1.0063	68.7868	-50.3109	665.8792	-47.8927	268.1891	78.7785	762.5564	-0.0592	0.0182	-0.0073	-0.0462	0.0165	0.9585
17.9034	3.8864	48.0591	0.75053	-16.1629	0.56543	41.3574	-50.1886	699.2191	-51.4543	280.6426	82.2909	797.1035	-0.0592	0.0182	-0.0073	-0.0462	0.0165	0.9585
17.9151	0.4329	24.7098	-0.19729	-8.348	0.14664	21.5137	-50.0155	727.4748	-55.3093	290.8943	86.0198	825.7304	-0.0592	0.0182	-0.0073	-0.0462	0.0165	0.9585
17.9269	-1.5445	9.0966	-0.66162	-3.1095	-0.14294	8.1827	-49.745	750.181	-59.0239	298.8128	89.4945	847.9359	-0.0592	0.0182	-0.0073	-0.0462	0.0165	0.9585
17.9386	-2.4023	-0.24617	-0.80348	0.041832	-0.30403	0.17371	-49.3062	767.2916	-62.2115	304.4444	92.2744	863.7039	-0.0592	0.0182	-0.0073	-0.0462	0.0165	0.9585
17.9503	-2.5138	-4.9155	-0.75823	1.6334	-0.36183	-3.8724	-48.6544	778.9234	-64.5883	307.8973	94.0419	873.2098	-0.0592	0.0182	-0.0073	-0.0462	0.0165	0.9585
17.962	-2.2159	-6.4046	-0.60821	2.1629	-0.36768	-5.1826	-47.7569	785.3489	-66.0807	309.3252	94.7098	876.806	-0.0592	0.0182	-0.0073	-0.0462	0.0165	0.9585
17.9737	-1.7171	-5.981	-0.43053	2.0475	-0.32917	-4.8364	-46.6199	787.0881	-66.7304	308.9658	94.3394	875.1219	-0.0592	0.0182	-0.0073	-0.0462	0.0165	0.9585
17.9854	-1.2012	-4.5928	-0.25752	1.6002	-0.27612	-3.6197	-45.2748	784.9091	-66.6859	307.1446	93.1226	869.0453	-0.0592	0.0182	-0.0073	-0.0462	0.0165	0.9585
17.9971	-0.71889	-2.8876	-0.11825	1.0322	-0.20768	-2.1101	-43.7632	779.8125	-66.1131	304.2735	91.2737	859.7089	-0.0592	0.0182	-0.0073	-0.0462	0.0165	0.9585
18.0089	-0.34292	-1.2579	-0.021984	0.47771	-0.14213	-0.63869	-42.1063	772.9479	-65.1523	300.8221	88.9671	848.3816	-0.0592	0.0182	-0.0073	-0.0462	0.0165	0.9585
18.0206	-0.051698	0.094387	0.034958	0.009073	-0.079647	0.59049	-40.3555	765.4974	-63.9255	297.2673	86.3588	836.3646	-0.0592	0.0182	-0.0073	-0.0462	0.0165	0.9585
18.0323	0.13625	1.1249	0.053787	-0.35146	-0.018739	1.5394	-38.5663	758.4915	-62.5182	294.0194	83.5646	824.7793	-0.0592	0.0182	-0.0073	-0.0462	0.0165	0.9585
18.044	0.26274	1.8448	0.055783	-0.60557	0.034093	2.185	-36.802	752.6929	-61.0112	291.3693	80.6942	814.4611	-0.0592	0.0182	-0.0073	-0.0462	0.0165	0.9585
18.0557	0.32506	2.3223	0.043338	-0.77557	0.079303	2.6131	-35.1043	748.514	-59.4574	289.4619	77.8283	805.837	-0.0592	0.0182	-0.0073	-0.0462	0.0165	0.9585
18.0674	0.36756	2.5992	0.039368	-0.88	0.10738	2.8569	-33.5069	746.0297	-57.9114	288.3023	75.0396	798.9629	-0.0592	0.0182	-0.0073	-0.0462	0.0165	0.9585
18.0791	0.37613	2.7449	0.036755	-0.9432	0.12333	2.9944	-31.9991	745.0206	-56.4197	287.7762	72.3722	793.5801	-0.0592	0.0182	-0.0073	-0.0462	0.0165	0.9585
18.0909	0.37799	2.799	0.047977	-0.9793	0.11929	3.0512	-30.5527	744.9988	-55.0264	287.6663	69.8518	789.159	-0.0592	0.0182	-0.0073	-0.0462	0.0165	0.9585
18.1026	0.34915	2.7915	0.066156	-0.99597	0.093153	3.0598	-29.0771	745.3116	-53.7559	287.6955	67.4595	785.0045	-0.0592	0.0182	-0.0073	-0.0462	0.0165	0.9585
18.1143	0.30094	2.7301	0.093885	-0.99254	0.040791	2.9977	-27.4752	745.2704	-52.6159	287.5785	65.155	780.3862	-0.0592	0.0182	-0.0073	-0.0462	0.0165	0.9585
18.126	0.20785	2.5951	0.13768	-0.95768	-0.051428	2.8472	-25.63	744.3068	-51.5855	287.0828	62.8672	774.6945	-0.0592	0.0182	-0.0073	-0.0462	0.0165	0.9585
18.1377	0.083987	2.3342	0.19341	-0.87068	-0.17614	2.5323	-23.4469	742.0935	-50.6577	286.0721	60.5507	767.5882	-0.0592	0.0182	-0.0073	-0.0462	0.0165	0.9585
18.1494	-0.08684	1.8733	0.27369	-0.70145	-0.34583	1.9832	-20.8562	738.5473	-49.8466	284.5093	58.1969	758.9828	-0.0592	0.0182	-0.0073	-0.0462	0.0165	0.9585
18.1611	-0.26746	1.1203	0.36702	-0.41501	-0.53627	1.0784	-17.8138	733.8531	-49.1866	282.4616	55.832	749.0683	-0.0592	0.0182	-0.0073	-0.0462	0.0165	0.9585
18.1729	-0.44852	-0.011032	0.47917	0.022872	-0.74266	-0.28018	-14.3127	728.3878	-48.7329	280.0758	53.5141	738.2262	-0.0592	0.0182	-0.0073	-0.0462	0.0165	0.9585
18.1846	-0.5751	-1.5967	0.59119	0.63558	-0.92687	-2.1916	-10.3771	722.6664	-48.5196	277.557	51.2931	726.9827	-0.0592	0.0182	-0.0073	-0.0462	0.0165	0.9585
18.1963	-0.59572	-3.6257	0.69227	1.4156	-1.0575	-4.623	-6.0603	717.2626	-48.5788	275.1383	49.2231	715.9262	-0.0592	0.0182	-0.0073	-0.0462	0.0165	0.9585
18.208	-0.42001	-5.9677	0.74415	2.3064	-1.0583	-7.4156	-1.4483	712.7317	-48.9307	273.0486	47.35	705.6291	-0.0592	0.0182	-0.0073	-0.0462	0.0165	0.9585
18.2197	0.055416	-8.2557	0.69487	3.1668	-0.82534	-10.1363	3.345	709.5589	-49.5763	271.4905	45.7083	696.5884	-0.0592	0.0182	-0.0073	-0.0462	0.0165	0.9585
